<?xml version="1.0" standalone="no"?>
<!DOCTYPE svg PUBLIC "-//W3C//DTD SVG 20010904//EN"
 "http://www.w3.org/TR/2001/REC-SVG-20010904/DTD/svg10.dtd">
<svg version="1.0" xmlns="http://www.w3.org/2000/svg"
 width="237.000000pt" height="237.000000pt" viewBox="0 0 237.000000 237.000000"
 preserveAspectRatio="xMidYMid meet">
<metadata>
Created by potrace 1.11, written by Peter Selinger 2001-2013
</metadata>
<g transform="translate(0.000000,237.000000) scale(0.100000,-0.100000)"
fill="#000000" stroke="none">
<path d="M1078 2365 c-2 -2 -23 -6 -48 -9 -25 -4 -56 -8 -70 -10 -55 -8 -204
-55 -234 -74 -6 -3 -17 -7 -25 -9 -8 -1 -18 -8 -22 -15 -5 -7 -9 -9 -9 -5 0
10 -113 -53 -118 -65 -2 -4 -8 -8 -14 -8 -14 0 -123 -86 -147 -116 -12 -15
-21 -23 -21 -20 0 15 -85 -82 -158 -179 -23 -30 -71 -115 -65 -115 3 0 -1 -8
-9 -17 -26 -30 -87 -191 -94 -248 0 -5 -3 -17 -7 -25 -14 -38 -30 -180 -30
-265 0 -58 11 -188 18 -207 2 -7 7 -24 9 -38 10 -52 45 -161 72 -222 156 -354
471 -605 859 -684 108 -22 285 -25 393 -6 48 8 95 15 105 15 9 1 17 6 17 11 0
5 2 7 6 4 10 -11 167 45 197 70 9 8 17 12 17 8 0 -8 93 41 119 62 9 7 43 33
76 57 103 74 208 186 279 297 46 72 133 259 126 270 -1 2 5 21 14 43 15 39 24
76 31 125 20 160 22 221 10 325 -13 108 -21 143 -56 249 -46 135 -126 281
-203 369 -14 16 -26 32 -28 36 -2 3 -16 17 -33 30 -16 12 -29 25 -27 27 1 2
-15 19 -35 37 -21 17 -44 38 -52 45 -8 7 -26 21 -40 30 -14 9 -30 22 -34 29
-4 7 -13 13 -20 13 -7 0 -32 13 -56 29 -25 17 -48 28 -53 25 -4 -3 -8 -1 -8 4
0 8 -30 24 -70 37 -3 0 -22 9 -44 18 -21 9 -42 14 -47 11 -5 -3 -9 0 -9 6 0 6
-3 9 -7 7 -5 -3 -19 0 -33 6 -14 5 -32 11 -40 12 -8 1 -44 8 -80 15 -56 11
-294 22 -302 15z m2 -669 c36 -2 85 -8 110 -12 25 -4 53 -8 63 -8 9 0 17 -4
17 -8 0 -4 7 -8 15 -8 32 0 73 -31 180 -137 108 -107 121 -129 94 -157 -5 -6
4 -21 22 -38 23 -22 38 -29 63 -27 24 2 42 -4 66 -24 31 -26 33 -32 33 -93 l0
-65 -59 -60 c-56 -57 -94 -74 -109 -49 -4 6 -11 8 -16 4 -5 -3 -8 -2 -7 3 2 5
-14 25 -34 46 -31 31 -36 42 -34 72 3 28 -2 42 -25 66 l-30 32 -36 -37 c-20
-20 -39 -36 -43 -36 -3 0 -41 35 -84 77 l-78 78 26 21 c13 12 22 25 19 28 -4
3 -1 6 5 6 7 0 12 15 12 35 0 19 -4 35 -10 35 -5 0 -12 10 -15 23 -14 54 -175
177 -270 207 -50 16 -56 19 -51 29 5 7 34 7 176 -3z m127 -497 c109 -104 127
-63 -144 -332 -237 -237 -273 -265 -289 -222 -4 8 -13 15 -22 15 -8 0 -13 3
-10 6 4 3 -11 22 -33 41 -46 42 -51 75 -15 108 14 13 22 26 19 29 -4 3 -2 6 4
6 5 0 22 11 37 25 15 14 24 25 20 25 -4 0 14 16 39 36 26 20 44 40 41 45 -3 5
-1 9 5 9 5 0 30 20 54 45 25 25 44 45 41 45 -2 0 4 8 14 18 9 11 20 17 24 15
4 -2 18 13 32 34 15 21 26 35 26 31 0 -3 17 11 38 31 22 20 37 39 35 43 -2 3
3 5 11 4 8 -1 41 -27 73 -57z"/>
</g>
</svg>
